<?xml version="1.0" encoding="UTF-8" standalone="no"?>
<!-- Created with Inkscape (http://www.inkscape.org/) -->

<svg
   xmlns:dc="http://purl.org/dc/elements/1.1/"
   xmlns:cc="http://creativecommons.org/ns#"
   xmlns:rdf="http://www.w3.org/1999/02/22-rdf-syntax-ns#"
   xmlns:svg="http://www.w3.org/2000/svg"
   xmlns="http://www.w3.org/2000/svg"
   xmlns:sodipodi="http://sodipodi.sourceforge.net/DTD/sodipodi-0.dtd"
   xmlns:inkscape="http://www.inkscape.org/namespaces/inkscape"
   width="210mm"
   height="297mm"
   viewBox="0 0 210 297"
   version="1.1"
   id="svg8"
   inkscape:version="0.92.2 5c3e80d, 2017-08-06"
   sodipodi:docname="rectangle.svg">
  <defs
     id="defs2">
    <inkscape:perspective
       sodipodi:type="inkscape:persp3d"
       inkscape:vp_x="0 : 148.5 : 1"
       inkscape:vp_y="0 : 1000 : 0"
       inkscape:vp_z="210 : 148.5 : 1"
       inkscape:persp3d-origin="105 : 99 : 1"
       id="perspective815" />
  </defs>
  <sodipodi:namedview
     id="base"
     pagecolor="#ffffff"
     bordercolor="#666666"
     borderopacity="1.0"
     inkscape:pageopacity="0.0"
     inkscape:pageshadow="2"
     inkscape:zoom="0.35"
     inkscape:cx="371.42857"
     inkscape:cy="331.42857"
     inkscape:document-units="mm"
     inkscape:current-layer="svg8"
     showgrid="false"
     inkscape:window-width="1280"
     inkscape:window-height="755"
     inkscape:window-x="0"
     inkscape:window-y="1"
     inkscape:window-maximized="1"
     inkscape:pagecheckerboard="true" />
  <metadata
     id="metadata5">
    <rdf:RDF>
      <cc:Work
         rdf:about="">
        <dc:format>image/svg+xml</dc:format>
        <dc:type
           rdf:resource="http://purl.org/dc/dcmitype/StillImage" />
        <dc:title></dc:title>
      </cc:Work>
    </rdf:RDF>
  </metadata>
  <rect
     style="fill:#ff0000;fill-opacity:0.0857143;stroke-width:0.26458332"
     id="rect8515"
     width="57.452377"
     height="211.66666"
     x="38.55357"
     y="31.660713" />
  <path
     style="fill:#ff0000;fill-opacity:0.0857143;stroke-width:2.85714293"
     d="M 145.71429,519.94826 V 118.51969 H 254.28571 362.85714 V 519.94826 921.37683 H 254.28571 145.71429 Z"
     id="path8517"
     inkscape:connector-curvature="0"
     transform="scale(0.26458333)" />
  <path
     style="fill:#ff0000;fill-opacity:0.0857143;stroke-width:2.85714293"
     d="M 145.71429,519.94826 V 118.51969 H 254.28571 362.85714 V 519.94826 921.37683 H 254.28571 145.71429 Z"
     id="path8519"
     inkscape:connector-curvature="0"
     transform="scale(0.26458333)" />
  <path
     style="fill:#ff0000;fill-opacity:0.0857143;stroke-width:2.85714293"
     d="M 145.71429,519.94826 V 118.51969 H 254.28571 362.85714 V 519.94826 921.37683 H 254.28571 145.71429 Z"
     id="path8521"
     inkscape:connector-curvature="0"
     transform="scale(0.26458333)" />
  <path
     style="fill:#ff0000;fill-opacity:0.0857143;stroke-width:2.85714293"
     d="M 145.71429,519.94826 V 118.51969 H 254.28571 362.85714 V 519.94826 921.37683 H 254.28571 145.71429 Z"
     id="path8523"
     inkscape:connector-curvature="0"
     transform="scale(0.26458333)" />
  <path
     style="fill:#ff0000;fill-opacity:0.0857143;stroke-width:2.85714293"
     d="M 145.71429,519.94826 V 118.51969 H 254.28571 362.85714 V 519.94826 921.37683 H 254.28571 145.71429 Z"
     id="path8525"
     inkscape:connector-curvature="0"
     transform="scale(0.26458333)" />
  <path
     style="fill:#ff0000;fill-opacity:0.0857143;stroke-width:2.85714293"
     d="M 145.71429,519.94826 V 118.51969 H 254.28571 362.85714 V 519.94826 921.37683 H 254.28571 145.71429 Z"
     id="path8527"
     inkscape:connector-curvature="0"
     transform="scale(0.26458333)" />
  <path
     style="fill:#ff0000;fill-opacity:0.0857143;stroke-width:2.85714293"
     d="M 145.71429,519.94826 V 118.51969 H 254.28571 362.85714 V 519.94826 921.37683 H 254.28571 145.71429 Z"
     id="path8529"
     inkscape:connector-curvature="0"
     transform="scale(0.26458333)" />
  <path
     style="fill:#ff0000;fill-opacity:0.0857143;stroke-width:2.85714293"
     d="M 145.71429,519.94826 V 118.51969 H 254.28571 362.85714 V 519.94826 921.37683 H 254.28571 145.71429 Z"
     id="path8531"
     inkscape:connector-curvature="0"
     transform="scale(0.26458333)" />
  <path
     style="fill:#ff0000;fill-opacity:0.0857143;stroke-width:2.85714293"
     d="M 145.71429,519.94826 V 118.51969 H 254.28571 362.85714 V 519.94826 921.37683 H 254.28571 145.71429 Z"
     id="path8533"
     inkscape:connector-curvature="0"
     transform="scale(0.26458333)" />
  <path
     style="fill:#ff0000;fill-opacity:0.0857143;stroke-width:2.85714293"
     d="M 145.71429,519.94826 V 118.51969 H 254.28571 362.85714 V 519.94826 921.37683 H 254.28571 145.71429 Z"
     id="path8535"
     inkscape:connector-curvature="0"
     transform="scale(0.26458333)" />
  <path
     style="fill:#ff0000;fill-opacity:0.0857143;stroke-width:2.85714293"
     d="M 145.71429,519.94826 V 118.51969 H 254.28571 362.85714 V 519.94826 921.37683 H 254.28571 145.71429 Z"
     id="path8537"
     inkscape:connector-curvature="0"
     transform="scale(0.26458333)" />
  <path
     style="fill:#ff0000;fill-opacity:0.0857143;stroke-width:2.85714293"
     d="M 145.71429,519.94826 V 118.51969 H 254.28571 362.85714 V 519.94826 921.37683 H 254.28571 145.71429 Z"
     id="path8539"
     inkscape:connector-curvature="0"
     transform="scale(0.26458333)" />
  <path
     style="fill:#ff0000;fill-opacity:0.0857143;stroke-width:2.85714293"
     d="M 145.71429,519.94826 V 118.51969 H 254.28571 362.85714 V 519.94826 921.37683 H 254.28571 145.71429 Z"
     id="path8541"
     inkscape:connector-curvature="0"
     transform="scale(0.26458333)" />
  <path
     style="fill:#ff0000;fill-opacity:0.0857143;stroke-width:2.85714293"
     d="M 145.71429,519.94826 V 118.51969 H 254.28571 362.85714 V 519.94826 921.37683 H 254.28571 145.71429 Z"
     id="path8543"
     inkscape:connector-curvature="0"
     transform="scale(0.26458333)" />
  <path
     style="fill:#ff0000;fill-opacity:0.0857143;stroke-width:2.85714293"
     d="M 145.71429,519.94826 V 118.51969 H 254.28571 362.85714 V 519.94826 921.37683 H 254.28571 145.71429 Z"
     id="path8545"
     inkscape:connector-curvature="0"
     transform="scale(0.26458333)" />
  <path
     style="fill:#ff0000;fill-opacity:0.0857143;stroke-width:2.85714293"
     d="M 145.71429,519.94826 V 118.51969 H 254.28571 362.85714 V 519.94826 921.37683 H 254.28571 145.71429 Z"
     id="path8547"
     inkscape:connector-curvature="0"
     transform="scale(0.26458333)" />
  <path
     style="fill:#ff0000;fill-opacity:0.0857143;stroke-width:2.85714293"
     d="M 145.71429,519.94826 V 118.51969 H 254.28571 362.85714 V 519.94826 921.37683 H 254.28571 145.71429 Z"
     id="path8549"
     inkscape:connector-curvature="0"
     transform="scale(0.26458333)" />
  <path
     style="fill:#ff0000;fill-opacity:0.0857143;stroke-width:2.85714293"
     d="M 145.71429,519.94826 V 118.51969 H 254.28571 362.85714 V 519.94826 921.37683 H 254.28571 145.71429 Z"
     id="path8551"
     inkscape:connector-curvature="0"
     transform="scale(0.26458333)" />
  <path
     style="fill:#ff0000;fill-opacity:0.0857143;stroke-width:2.85714293"
     d="M 145.71429,519.94826 V 118.51969 H 254.28571 362.85714 V 519.94826 921.37683 H 254.28571 145.71429 Z"
     id="path8553"
     inkscape:connector-curvature="0"
     transform="scale(0.26458333)" />
  <path
     style="fill:#ff0000;fill-opacity:0.0857143;stroke-width:2.85714293"
     d="M 145.71429,519.94826 V 118.51969 H 254.28571 362.85714 V 519.94826 921.37683 H 254.28571 145.71429 Z"
     id="path8555"
     inkscape:connector-curvature="0"
     transform="scale(0.26458333)" />
  <path
     style="fill:#ff0000;fill-opacity:0.0857143;stroke-width:2.85714293"
     d="M 145.71429,519.94826 V 118.51969 H 254.28571 362.85714 V 519.94826 921.37683 H 254.28571 145.71429 Z"
     id="path8557"
     inkscape:connector-curvature="0"
     transform="scale(0.26458333)" />
</svg>
